<?xml version="1.0" encoding="utf-8"?>
<!-- Generator: Adobe Illustrator 16.0.0, SVG Export Plug-In . SVG Version: 6.00 Build 0)  -->
<!DOCTYPE svg PUBLIC "-//W3C//DTD SVG 1.1//EN" "http://www.w3.org/Graphics/SVG/1.1/DTD/svg11.dtd">
<svg version="1.1" id="Layer_1" xmlns="http://www.w3.org/2000/svg" xmlns:xlink="http://www.w3.org/1999/xlink" x="0px" y="0px"
	 width="1000px" height="259.546px" viewBox="0 0 1000 259.546" enable-background="new 0 0 1000 259.546" xml:space="preserve">
<g>
	<path fill="#E21D38" d="M231.084,210.813c-23.768,29.692-60.339,48.732-101.341,48.732C58.094,259.546,0,201.455,0,129.75
		C0,58.139,58.094,0,129.744,0c41.001,0,77.573,19.069,101.341,48.747l-4.21,2.549c-20.756-21.816-50.091-35.457-82.604-35.457
		c-62.926,0-113.942,51.023-113.942,113.958c0,62.902,51.017,113.941,113.942,113.941c32.514,0,61.879-13.638,82.635-35.55
		L231.084,210.813z"/>
	<path fill="#010101" d="M269.985,67.743c-40.737,0-64.147,27.354-64.147,62.007c0,34.715,23.214,62.01,64.147,62.01
		c38.924,0,62.797-27.038,62.797-62.01C332.783,95.097,308.91,67.743,269.985,67.743 M269.985,169.108
		c-23.13,0-38.453-17.964-38.453-39.358c0-21.39,15.475-39.387,38.453-39.387c19.937,0,37.119,16.704,37.119,39.434
		C307.104,152.009,290.354,169.108,269.985,169.108"/>
	<path fill="#010101" d="M625.768,153.177c-2.337,3.322-11.453,15.914-32.071,15.914c-22.272,0-38.477-16.857-38.477-39.326
		c0-22.697,16.508-39.385,38.477-39.385c20.708,0,30.417,13.458,31.981,15.719l19.054-11.699
		c-1.485-2.639-14.942-26.641-51.035-26.641c-39.009,0-64.117,25.487-64.117,62.006c0,36.354,24.973,62.023,64.117,62.023
		c35.636,0,49.081-23.272,51.218-26.763L625.768,153.177z"/>
	<path fill="#010101" d="M179.234,154.313c-2.481,3.522-12.069,16.75-33.697,16.75c-23.335,0-40.396-17.689-40.396-41.298
		c0-23.834,17.327-41.359,40.396-41.359c21.719,0,31.959,14.125,33.561,16.508l20.042-12.289
		c-1.6-2.791-15.696-27.961-53.603-27.961c-40.966,0-67.333,26.764-67.333,65.102c0,38.158,26.239,65.104,67.318,65.104
		c37.429,0,51.532-24.427,53.8-28.1L179.234,154.313z"/>
	<path fill="#010101" d="M938.373,69.896l0.79-33.271l-25.674,13.017l-0.725,20.254h-19.119v19.892h19.119v67.243
		c0,23.927,13.624,34.729,31.706,34.729c10.32,0,16.722-2.004,17.965-2.354l3.111-20.298c-0.896,0.179-5.962,1.622-11.592,1.622
		c-10.03,0-15.582-3.779-15.582-15.507V89.788h24.791V69.896H938.373z"/>
	<path fill="#010101" d="M754.231,69.896c0,0-0.229,11.896-0.258,13.823h-0.336c-2.168-2.187-14.078-15.977-38.201-15.977
		c-36.05,0-62.509,24.381-62.509,62.054c0,35.64,24.744,61.963,62.599,61.963c22.791,0,35.168-12.835,38.111-15.946h0.336
		c0.028,0.15,0.258,13.774,0.258,13.774h25.987V69.896H754.231z M718.105,169.108c-24.898,0-39.537-18.071-39.537-39.312
		c0-23.138,16.354-39.434,39.598-39.434c24.73,0,39.54,18.054,39.54,39.434C757.706,151.005,742.835,169.108,718.105,169.108"/>
	<path fill="#010101" d="M488.317,189.635V114.64c0-15.75-8.344-24.837-22.18-24.837c-14.156,0-21.969,9.513-21.969,24.837v74.995
		h-25.604V114.64c0-15.764-8.209-24.837-22.083-24.837c-14.117,0-22.074,9.483-22.074,24.837v74.995h-25.604V69.896h24.162
		l0.227,11.365h0.47c1.707-2.019,11.418-13.503,29.844-13.503c21.301,0,29.305,14.171,31.148,17.189
		c2.52-3.172,12.76-17.189,35.298-17.189c27.249,0,43.728,16.992,43.728,41.387v80.489H488.317z"/>
	<path fill="#010101" d="M853.651,118.813c20.212,6.916,33.015,17.339,33.015,35.579c0,25.001-21.451,37.368-49.218,37.368
		c-25.305,0-38.962-7.98-43.27-10.577l9.984-19.525c2.668,1.364,15.899,9.209,34.317,9.209c12.989,0,22.455-5.551,22.455-13.928
		c0-7.463-4.976-12.078-18.025-16.433l-13.653-4.7c-15.917-5.462-29.495-15.75-29.495-34.201c0-20.89,18.39-33.817,43.695-33.817
		c22.319,0,34.35,7.314,38.658,9.954l-9.802,18.449c-2.215-1.076-13.532-7.51-29.492-7.51c-12.32,0-17.45,5.901-17.45,11.514
		c0,5.873,4.219,10.381,15.386,14.231L853.651,118.813z"/>
	<path fill="#010101" d="M983.1,184.748h5.34c3.354,0,5.066,1.625,5.066,4.097c0,2.519-1.973,3.598-3.669,3.854l4.094,6.298h-2.337
		l-3.972-6.115h-2.519v6.115H983.1V184.748z M985.104,191.199h3.275c1.822,0,3.033-0.821,3.033-2.49
		c0-1.625-1.271-2.275-3.033-2.275h-3.275V191.199z"/>
	<path fill="#010101" d="M998.332,191.956c0,5.794-4.733,10.545-10.56,10.545s-10.559-4.751-10.559-10.545
		c0-5.872,4.732-10.591,10.559-10.591S998.332,186.084,998.332,191.956 M987.847,179.696c-6.841,0-12.363,5.477-12.363,12.274
		c0,6.677,5.522,12.199,12.363,12.199c6.616,0,12.153-5.522,12.153-12.199C1000,185.173,994.463,179.696,987.847,179.696"/>
</g>
</svg>
