<svg xmlns="http://www.w3.org/2000/svg" viewBox="0 0 612 396"><g fill="#ED1944"><path d="M298.4 191.8c0 26.5 19.4 39.7 41.1 51.9l19.3 11c10.5 5.9 15.2 12.6 15.2 21.7 0 12-8.9 19.5-23.2 19.5-26.3 0-34.3-21.9-38.5-43.3l-.7-3.3h-12.9v60.3h10l1.2-1.4c2.3-2.6 2.3-2.6 4.6-2.6 3.9-.1 8.9 1 14.6 2.4 7.2 1.7 15.4 3.6 24 3.6 21.8 0 52.5-14.6 52.5-47.1 0-22.7-13.6-32.8-30-42.9l-36-21.3c-8.3-4.9-12.3-11.5-12.3-20.1 0-7 5.6-17.5 21.1-17.5 11.5 0 25.7 4.3 32.9 37.7l.7 3.3h12.6l-1.6-53.9h-10.1l-1.2 2.1c-.5 1-1.5 1.6-2.4 1.6-.5 0-3.4-.9-5.1-1.5-6.4-2.1-16.1-5.2-25.9-5.2-28.8-.1-49.9 18.8-49.9 45M64.6 222.1c0-42.6 20-57.8 37.1-57.8 18.9 0 30.1 15.8 30.1 31.1v74c-2.3 9.5-13 16.5-25.5 16.5-19.2 0-41.7-16.8-41.7-63.8M162 72.2l-1.1.4c-6 2.1-29.5 9.9-48.5 14.5l-3.2.8v13.2l4.6-.5c10.7-1.1 14.7.3 16.2 1.7 1.8 1.6 1.8 4.8 1.8 9.9v44.4c-9.8-6.9-19.2-9.9-31.1-9.9-18.9 0-37.8 9.5-51.6 26.1-13.6 16.3-21.4 38.2-21.4 60 0 76.5 58.1 78.7 64.8 78.7 16.2 0 29.4-5 39.5-14.9v11.8l4.8 3.6 53.8-19v-12.8l-4.5.3c-10.5.8-14.5-.7-16-2.1-1.6-1.4-1.8-4-1.8-8.4V74.4l-5.7-2.3-.6.1z"/><path d="M563.8 294.9c-14.7-2.6-16.5-2.9-16.5-24.2v-66.9c0-37.9-15.2-57.1-45.1-57.1-16.9 0-32.3 7.2-44.8 20.7V75.2l-5.5-3.3-.5.2-1.4.6c-7 2.9-34.3 11-46.8 14.5l-3 .8v13.1l4.6-.5c2.8-.3 4.9-.3 7.9-.3 3.1 0 5.3.7 6.5 1.9 2.1 2.1 2 6.3 2 9.7V270c0 21.3-1.3 23.1-17.6 24.8l-3.7.4v12.9H477v-13.2l-.7-.1c-14.9-1.6-18.9-2-18.9-24.5v-78.9c1.9-2.3 15.6-18.5 32.5-18.5 14.6 0 21.2 9.9 21.2 32.1v65.6c0 20.7-3.6 23-18.8 24.2h-.3v13.3h75.4v-12.6l-3.6-.6"/><path fill-rule="evenodd" clip-rule="evenodd" d="M244 305c25.5 0 38.3-14.7 47.4-32.2.6-1.1.1-1.9-1-1.4-6.7 3.1-24.5 11.3-46.4 11.3s-39.6-8.2-46.4-11.3c-1.1-.5-1.6.3-1 1.4 9 17.5 21.9 32.2 47.4 32.2M206.7 230.7c7 13.6 17.1 25.5 37.2 25.5s30.2-11.9 37.2-25.5c.5-.9.1-1.6-.9-1.2-4.5 2.1-18.5 8.3-36.3 8.3-17.8 0-31.8-6.2-36.3-8.3-.9-.4-1.3.2-.9 1.2M216.1 191.9c5.2 10.1 12.7 19.4 27.9 19.4s22.7-9.2 27.9-19.4c.4-.7.1-1.3-.8-.9-2.4 1.1-13 5.5-27.1 5.5-14.1 0-24.7-4.4-27.1-5.5-.9-.3-1.2.2-.8.9M244 169.2c10.6 0 15.7-6.8 19.1-13.6.3-.5 0-1-.7-.7-.5.2-7.8 2.9-18.5 2.9-10.6 0-18-2.7-18.5-2.9-.7-.2-.9.2-.7.7 3.5 6.8 8.7 13.6 19.3 13.6"/><path d="M215 100.8c0-16 13-29 29-29s29 13 29 29-13 29-29 29c-16.1 0-29-13-29-29M578.6 302.3l2 3.1h-1.2l-1.9-3.1h-1.2v3.1h-1.1v-7.1h2.7c1.7 0 2.5.6 2.5 2 .1 1.3-.7 1.8-1.8 2zm-1-.9c.9 0 1.7-.1 1.7-1.2 0-.9-.8-1.1-1.6-1.1h-1.5v2.2h1.4z"/><path d="M583.9 301.8c0 3.6-2.9 6.2-6.2 6.2-3.4 0-6.3-2.6-6.3-6.2 0-3.5 2.9-6.2 6.3-6.2 3.3.1 6.2 2.7 6.2 6.2zm-1.3 0c0-2.9-2.2-5.1-5-5.1s-5 2.2-5 5.1c0 3 2.2 5.2 5 5.2s5-2.2 5-5.2z"/></g></svg>