<?xml version="1.0" encoding="UTF-8" standalone="no"?>
<!-- Created with Inkscape (http://www.inkscape.org/) -->

<svg xmlns:dc="http://purl.org/dc/elements/1.1/" xmlns:cc="http://creativecommons.org/ns#" xmlns:rdf="http://www.w3.org/1999/02/22-rdf-syntax-ns#" xmlns:svg="http://www.w3.org/2000/svg" xmlns="http://www.w3.org/2000/svg" xmlns:sodipodi="http://sodipodi.sourceforge.net/DTD/sodipodi-0.dtd" xmlns:inkscape="http://www.inkscape.org/namespaces/inkscape" id="svg2985" version="1.1" inkscape:version="0.48.5 r10040" width="468.09482" height="131.16953" sodipodi:docname="151203143652-new-directv-logo-780x439.jpg">
  <metadata id="metadata2991">
    <rdf:RDF>
      <cc:Work rdf:about="">
        <dc:format>image/svg+xml</dc:format>
        <dc:type rdf:resource="http://purl.org/dc/dcmitype/StillImage" />
        <dc:title></dc:title>
      </cc:Work>
    </rdf:RDF>
  </metadata>
  <defs id="defs2989" />
  <sodipodi:namedview pagecolor="#ffffff" bordercolor="#666666" borderopacity="1" objecttolerance="10" gridtolerance="10" guidetolerance="10" inkscape:pageopacity="0" inkscape:pageshadow="2" inkscape:window-width="1366" inkscape:window-height="706" id="namedview2987" showgrid="false" fit-margin-top="0" fit-margin-left="0" fit-margin-right="0" fit-margin-bottom="0" inkscape:zoom="1.5882993" inkscape:cx="79.503859" inkscape:cy="27.914921" inkscape:window-x="-8" inkscape:window-y="-8" inkscape:window-maximized="1" inkscape:current-layer="svg2985" />
  <g id="g3430" transform="translate(-152.26317,-149.59986)">
    <path inkscape:connector-curvature="0" id="path3013" style="font-size:25.04999924px;font-style:normal;font-weight:bold;text-align:start;text-anchor:start;fill:black;font-family:DIN" d="m 348.25173,214.90523 c -5e-5,-2.18142 -5e-5,-4.30958 0,-6.38449 -5e-5,-2.12813 -0.16367,-4.17428 -0.49083,-6.13846 -0.32727,-1.96409 -0.9001,-3.84663 -1.71852,-5.64762 -0.8185,-1.8009 -2.04619,-3.51983 -3.68307,-5.1568 -1.91006,-1.9083 -4.18851,-3.31292 -6.83535,-4.21386 -2.64691,-0.90083 -5.4982,-1.35128 -8.55387,-1.35134 l -21.03434,0 0,58.27721 21.03434,0 c 3.05567,0 5.90696,-0.45003 8.55387,-1.35008 2.64684,-0.90006 4.92529,-2.3051 6.83535,-4.21512 1.63688,-1.63691 2.86457,-3.3829 3.68307,-5.23798 0.81842,-1.85505 1.39125,-3.79213 1.71852,-5.81123 0.32717,-2.01907 0.49078,-4.0927 0.49083,-6.22088 -5e-5,-2.1831 -5e-5,-4.36621 0,-6.54935 z m -11.37768,0 c -4e-5,4.41954 -0.14991,7.80287 -0.44962,10.14999 -0.29978,2.34716 -0.96836,4.17516 -2.00576,5.48402 -0.98253,1.20064 -2.15568,2.10111 -3.51947,2.70142 -1.36385,0.60032 -3.02825,0.90048 -4.99319,0.90047 l -8.59508,0 0,-37.97972 8.59508,0 c 1.96494,4e-5 3.62934,0.30021 4.99319,0.90047 1.36379,0.60036 2.53694,1.50083 3.51947,2.70142 0.54616,0.65448 0.98286,1.39092 1.31012,2.20934 0.32717,0.8185 0.5728,1.82805 0.73686,3.02863 0.16399,1.20067 0.27306,2.60613 0.32722,4.21637 0.0541,1.61031 0.0811,3.50617 0.0812,5.68759 z" />
    <path inkscape:connector-curvature="0" id="path3015" style="font-size:25.04999924px;font-style:normal;font-weight:bold;text-align:start;text-anchor:start;fill:black;font-family:DIN" d="m 370.51296,244.28987 0,-58.27721 -11.37518,0 0,58.27721 z" />
    <path inkscape:connector-curvature="0" id="path3017" style="font-size:25.04999924px;font-style:normal;font-weight:bold;text-align:start;text-anchor:start;fill:black;font-family:DIN" d="m 426.85024,244.28987 -13.01376,-25.12832 c 1.41873,-0.49121 2.76923,-1.18686 4.0515,-2.08694 1.28218,-0.90003 2.41412,-1.99117 3.39582,-3.27343 0.98161,-1.28219 1.75885,-2.74176 2.33173,-4.37872 0.5728,-1.63689 0.85922,-3.49195 0.85926,-5.5652 -4e-5,-2.45617 -0.42259,-4.76209 -1.26765,-6.91778 -0.84515,-2.15559 -2.08616,-4.03813 -3.72304,-5.64762 -1.63696,-1.60939 -3.62899,-2.89162 -5.97609,-3.84668 -2.34718,-0.95495 -4.99364,-1.43246 -7.9394,-1.43252 l -22.83529,0 0,58.27721 11.37518,0 0,-23.24494 8.18544,0 11.37768,23.24494 z m -13.75063,-40.43261 c -4e-5,2.2914 -0.75064,4.14646 -2.2518,5.5652 -1.50124,1.41881 -3.50659,2.1282 -6.01606,2.12816 l -10.72325,0 0,-15.38921 10.72325,0 c 2.50947,4e-5 4.51482,0.70943 6.01606,2.12816 1.50116,1.41882 2.25176,3.27471 2.2518,5.56769 z" />
    <path inkscape:connector-curvature="0" id="path3019" style="font-size:25.04999924px;font-style:normal;font-weight:bold;text-align:start;text-anchor:start;fill:black;font-family:DIN" d="m 472.65956,244.28987 0,-10.14874 -27.01169,0 0,-14.16028 23.00015,0 0,-10.14874 -23.00015,0 0,-13.6707 27.01169,0 0,-10.14875 -38.38688,0 0,58.27721 z" />
    <path inkscape:connector-curvature="0" id="path3021" style="font-size:25.04999924px;font-style:normal;font-weight:bold;text-align:start;text-anchor:start;fill:black;font-family:DIN" d="m 522.40445,226.36534 -11.54254,0 c -0.59952,2.34632 -1.66318,4.31046 -3.19099,5.89241 -1.52789,1.58198 -3.73806,2.37297 -6.63053,2.37296 -1.58199,1e-5 -2.98703,-0.27267 -4.21512,-0.81805 -1.22812,-0.54535 -2.25099,-1.2818 -3.0686,-2.20934 -0.54621,-0.59947 -1.00998,-1.26764 -1.3913,-2.00452 -0.38135,-0.73685 -0.68151,-1.7056 -0.90047,-2.90624 -0.21898,-1.20062 -0.36928,-2.72846 -0.45086,-4.58355 -0.0816,-1.85504 -0.1224,-4.17387 -0.1224,-6.9565 -10e-6,-2.78423 0.0408,-5.10389 0.1224,-6.95899 0.0816,-1.85503 0.23186,-3.38287 0.45086,-4.58354 0.21895,-1.20059 0.51912,-2.16892 0.90047,-2.905 0.38132,-0.73598 0.84509,-1.40457 1.3913,-2.00577 0.81761,-0.92748 1.84048,-1.66393 3.0686,-2.20934 1.22809,-0.54531 2.63313,-0.81799 4.21512,-0.81804 2.89247,5e-5 5.10264,0.79103 6.63053,2.37295 1.52781,1.58201 2.59147,3.54615 3.19099,5.89241 l 11.54254,0 c -0.49129,-3.05565 -1.37802,-5.72917 -2.6602,-8.02057 -1.28227,-2.29131 -2.86466,-4.21465 -4.74716,-5.77002 -1.88258,-1.55527 -4.01074,-2.71469 -6.38449,-3.47825 -2.37381,-0.76345 -4.92453,-1.14521 -7.65214,-1.14526 -3.22058,5e-5 -6.12682,0.54542 -8.71873,1.63608 -2.59194,1.09079 -4.92451,2.67275 -6.99771,4.74591 -1.47374,1.47378 -2.60609,3.04284 -3.39707,4.70719 -0.79099,1.66444 -1.35009,3.45165 -1.6773,5.36162 -0.32722,1.91006 -0.51831,3.95621 -0.57326,6.13845 -0.055,2.18232 -0.0824,4.52904 -0.0824,7.04017 -10e-6,2.50953 0.0274,4.85542 0.0824,7.03768 0.055,2.1823 0.24604,4.22845 0.57326,6.13845 0.32721,1.91004 0.88631,3.69724 1.6773,5.36163 0.79098,1.6644 1.92333,3.23346 3.39707,4.70718 2.0732,2.07322 4.40577,3.6556 6.99771,4.74716 2.59191,1.09155 5.49815,1.63733 8.71873,1.63733 2.67266,0 5.20964,-0.38216 7.61093,-1.14651 2.40122,-0.76434 4.54312,-1.92417 6.4257,-3.47949 1.8825,-1.55532 3.46489,-3.47866 4.74716,-5.77002 1.28218,-2.29135 2.16891,-4.96487 2.6602,-8.02058 z" />
    <path inkscape:connector-curvature="0" id="path3023" style="font-size:25.04999924px;font-style:normal;font-weight:bold;text-align:start;text-anchor:start;fill:black;font-family:DIN" d="m 567.96251,196.16141 0,-10.14875 -41.8239,0 0,10.14875 15.22436,0 0,48.12846 11.37768,0 0,-48.12846 z" />
    <path inkscape:connector-curvature="0" id="path3025" style="font-size:25.04999924px;font-style:normal;font-weight:bold;text-align:start;text-anchor:start;fill:black;font-family:DIN" d="m 620.35798,186.01266 -11.86726,0 -11.7049,37.97973 -11.70489,-37.97973 -11.78733,0 19.2359,58.27721 8.51265,0 z" />
    <path style="fill:white;fill-opacity:1" d="m 213.28101,280.69978 c -11.21089,-0.93042 -21.66796,-4.45787 -30.97876,-10.44991 -7.55054,-4.8592 -15.25616,-12.72577 -20.14531,-20.56598 -12.17023,-19.51624 -13.07877,-44.40031 -2.36654,-64.81842 10.1347,-19.31736 29.54062,-32.58836 51.07232,-34.92648 3.18767,-0.34617 11.05403,-0.3519 14.13293,-0.0104 9.63941,1.0694 19.18915,4.37425 27.45399,9.50092 10.90135,6.76205 20.28615,17.47777 25.3919,28.99292 11.09192,25.01587 5.77655,53.71544 -13.5309,73.05824 -10.15024,10.16885 -22.83645,16.52513 -37.36254,18.72003 -2.67987,0.40491 -11.09733,0.71226 -13.66709,0.49898 z" id="path3552" inkscape:connector-curvature="0" />
    <path style="fill:#32a4da;fill-opacity:1" d="m 227.66669,280.17269 c 9.12603,-1.52347 16.44357,-4.149 23.91001,-8.57889 5.17709,-3.07158 11.05925,-7.83335 14.66724,-11.87349 l 1.99576,-2.23482 -2.23603,1.84906 c -9.9067,8.19234 -22.54036,13.33142 -37.81008,15.38029 -4.2883,0.5754 -16.76771,0.81731 -21.20962,0.41114 -10.4106,-0.95195 -18.86293,-3.18732 -26.58415,-7.03066 -4.43349,-2.20682 -4.16235,-1.83642 1.35123,1.84581 9.10202,6.07877 18.25685,9.28862 30.61538,10.73436 2.22149,0.25986 12.81747,-0.0883 15.30026,-0.5028 z" id="path3550" inkscape:connector-curvature="0" />
    <path style="fill:#32a4da;fill-opacity:1" d="m 232.31141,269.77739 c 15.03912,-2.07922 28.46906,-8.23031 38.22343,-17.50686 3.39915,-3.23261 4.94778,-5.32342 6.8684,-9.27302 1.29137,-2.65552 4.08757,-10.15655 4.08757,-10.96515 0,-0.10789 -0.74556,0.93553 -1.6568,2.31873 -9.50058,14.42123 -31.5844,24.10321 -63.08252,27.65664 -4.387,0.49493 -16.36398,0.17833 -21.18802,-0.56007 -11.27208,-1.72538 -19.35849,-4.59628 -26.77545,-9.50603 -3.12196,-2.06662 -8.47828,-7.20276 -10.11541,-9.69959 -0.56802,-0.86633 -1.07738,-1.53052 -1.13192,-1.47602 -0.0545,0.0545 0.23035,0.82483 0.63302,1.71175 2.49255,5.49011 8.48867,11.59593 15.55605,15.84055 8.46082,5.08151 25.68785,10.33177 37.95363,11.56707 1.65297,0.16648 3.43572,0.35169 3.96167,0.41158 2.18755,0.24912 13.70288,-0.10989 16.66635,-0.51958 z" id="path3548" inkscape:connector-curvature="0" />
    <path style="fill:#32a4da;fill-opacity:1" d="m 237.09274,251.63003 c 20.13175,-2.72378 34.64118,-10.13153 42.44882,-21.67211 0.48043,-0.71015 1.42303,-2.43143 2.09466,-3.82506 1.69669,-3.5207 2.15627,-6.58939 1.93433,-12.91621 -0.0896,-2.55459 -0.27625,-5.01356 -0.4148,-5.46437 -0.1863,-0.60628 -0.258,-0.67207 -0.27535,-0.25279 -0.0325,0.78431 -1.18435,4.10635 -1.93676,5.5858 -2.41064,4.74002 -7.78018,10.12896 -13.8331,13.8831 -8.97595,5.56705 -20.077,9.40616 -37.2581,12.88506 -22.25157,4.50562 -34.74205,4.11216 -51.91159,-1.63522 -12.26214,-4.10468 -21.45164,-12.19701 -24.76524,-21.80849 l -0.91244,-2.64665 0,2.59558 c 0,3.70132 0.37401,5.55998 1.64024,8.12496 3.19292,6.46774 11.19034,13.14407 21.01034,17.53964 9.41411,4.21385 26.22885,8.41367 40.02545,9.99711 4.81002,0.55203 16.74313,0.34179 22.15442,-0.39035 z" id="path3546" inkscape:connector-curvature="0" />
    <path style="fill:#32a4da;fill-opacity:1" d="m 242.69373,227.05232 c 18.7688,-2.81322 31.16766,-9.4278 36.44937,-19.44507 1.66502,-3.15792 2.44066,-6.10756 2.21804,-8.43492 -0.2115,-2.21097 -1.66346,-6.72206 -3.5013,-10.87799 l -1.42358,-3.21923 -0.15447,1.91253 c -0.35221,4.36085 -2.47143,7.846 -7.09569,11.66926 -6.39401,5.28643 -18.87426,10.72739 -34.32094,14.96272 -19.71665,5.4061 -38.71337,5.4593 -54.87962,0.15364 -10.20128,-3.348 -18.22463,-9.0306 -21.23126,-15.03721 -0.93124,-1.86043 -1.28446,-3.02797 -1.67142,-5.52484 l -0.32934,-2.12529 -1.05897,3.14202 c -1.44079,4.27503 -1.60407,6.69217 -0.60012,8.88505 2.09993,4.58686 7.17828,9.45007 13.38857,12.82137 11.60877,6.30188 30.01471,10.37352 52.48983,11.61148 7.06361,0.38906 17.39934,0.15423 21.7209,-0.49352 z" id="path3544" inkscape:connector-curvature="0" />
    <path style="fill:#32a4da;fill-opacity:1" d="m 235.72665,200.22529 c 18.5791,-1.26137 31.18651,-6.2218 35.18362,-13.8431 1.88546,-3.59499 1.90423,-6.69777 0.0591,-9.76195 -1.12205,-1.86338 -3.84787,-5.15037 -6.12278,-7.38328 l -1.66141,-1.63076 -0.006,1.08432 c -0.009,1.66522 -0.90589,3.28388 -2.92981,5.28889 -2.3275,2.30572 -4.95018,4.02023 -9.47971,6.19716 -18.73536,9.00425 -45.86649,12.37897 -63.1295,7.85239 -5.7591,-1.51011 -10.02207,-3.71313 -13.12363,-6.782 -2.68599,-2.65769 -3.54395,-4.45274 -3.539,-7.40432 0.004,-2.04023 0.0922,-2.39424 1.11763,-4.45757 l 1.11391,-2.24135 -1.89994,1.86199 c -4.05224,3.97132 -8.47271,9.83004 -8.82213,11.69251 -0.55378,2.95192 3.70015,7.10572 10.65773,10.4068 7.46461,3.54166 15.54058,5.61296 28.12141,7.21243 14.98627,1.90532 25.73355,2.50031 34.46055,1.90784 z" id="path3542" inkscape:connector-curvature="0" />
    <path style="fill:#32a4da;fill-opacity:1" d="m 227.66669,175.52209 c 12.50277,-1.50874 22.48157,-5.01808 26.0185,-9.15021 1.08572,-1.26839 1.68696,-2.98617 1.43954,-4.11271 -0.63898,-2.90921 -11.92453,-8.55266 -21.85705,-10.92981 -5.43331,-1.30035 -9.22985,-1.7295 -15.30026,-1.7295 -8.08531,0 -14.00348,0.97818 -21.58429,3.56759 -6.54562,2.2358 -14.65492,6.65406 -16.39136,8.93063 -0.9729,1.27558 -1.18965,3.00778 -0.54605,4.3641 2.18061,4.59527 13.37422,8.39946 28.13938,9.56329 3.23877,0.25529 16.56218,-0.0787 20.08159,-0.50338 z" id="path3540" inkscape:connector-curvature="0" />
  </g>
</svg>
