<?xml version="1.0" encoding="utf-8"?>
<!-- Generator: Adobe Illustrator 16.0.0, SVG Export Plug-In . SVG Version: 6.00 Build 0)  -->
<!DOCTYPE svg PUBLIC "-//W3C//DTD SVG 1.1//EN" "http://www.w3.org/Graphics/SVG/1.1/DTD/svg11.dtd">
<svg version="1.1" id="Layer_1" xmlns="http://www.w3.org/2000/svg" xmlns:xlink="http://www.w3.org/1999/xlink" x="0px" y="0px"
	 width="595.275px" height="389px" viewBox="0 150.445 595.275 389" enable-background="new 0 150.445 595.275 389"
	 xml:space="preserve">
<linearGradient id="SVGID_1_" gradientUnits="userSpaceOnUse" x1="436.6982" y1="933.1138" x2="431.6982" y2="1357.4028" gradientTransform="matrix(0.2894 0 0 -0.1309 175.2736 636.9215)">
	<stop  offset="0" style="stop-color:#B3B3B3"/>
	<stop  offset="0.3553" style="stop-color:#E6E6E6"/>
	<stop  offset="0.4798" style="stop-color:#B3B3B3"/>
	<stop  offset="0.581" style="stop-color:#E6E6E6"/>
	<stop  offset="1" style="stop-color:#CCCCCC"/>
</linearGradient>
<path fill="url(#SVGID_1_)" d="M271.375,459.072c11.162,18.123,9.293,36.594-16.953,55.715h94.479
	c-26.246-19.121-28.115-37.592-16.953-55.715h-37.006H271.375z"/>
<path fill="#666666" d="M68.626,179.748h466.068c7.101,0,12.857,5.756,12.857,12.857v267.869c0,7.102-5.757,12.857-12.857,12.857
	H68.626c-7.101,0-12.857-5.756-12.857-12.857V192.605C55.769,185.504,61.525,179.748,68.626,179.748z"/>
<linearGradient id="SVGID_2_" gradientUnits="userSpaceOnUse" x1="-286.1665" y1="773.2065" x2="-114.1875" y2="720.2935" gradientTransform="matrix(2.8346 0 0 -2.8346 871.1969 2443.9487)">
	<stop  offset="0" style="stop-color:#4D4D4D"/>
	<stop  offset="0.1882" style="stop-color:#4D4D4D"/>
	<stop  offset="0.2307" style="stop-color:#999999"/>
	<stop  offset="0.3071" style="stop-color:#4D4D4D"/>
	<stop  offset="0.8739" style="stop-color:#4D4D4D"/>
	<stop  offset="0.9285" style="stop-color:#666666"/>
	<stop  offset="1" style="stop-color:#4D4D4D;stop-opacity:0.9764"/>
</linearGradient>
<path fill="url(#SVGID_2_)" d="M68.624,179.748c-7.123,0-12.857,5.734-12.857,12.857v267.858c0,7.121,5.734,12.855,12.857,12.855
	h466.072c7.123,0,12.856-5.734,12.856-12.855V192.604c0-7.123-5.733-12.857-12.856-12.857H68.624z M92.438,194.748h418.45
	c6.396,0,11.543,5.148,11.543,11.542v240.486c0,6.395-5.147,11.543-11.543,11.543H92.438c-6.395,0-11.543-5.148-11.543-11.543
	V206.291C80.895,199.896,86.043,194.748,92.438,194.748z"/>
<linearGradient id="SVGID_3_" gradientUnits="userSpaceOnUse" x1="-228.3228" y1="657.9644" x2="-173.5161" y2="657.9644" gradientTransform="matrix(2.8346 0 0 -2.8346 871.1969 2380.9487)">
	<stop  offset="0" style="stop-color:#B3B3B3"/>
	<stop  offset="0.1722" style="stop-color:#E6E6E6"/>
	<stop  offset="0.3011" style="stop-color:#B3B3B3"/>
	<stop  offset="1" style="stop-color:#CCCCCC"/>
</linearGradient>
<path fill="url(#SVGID_3_)" d="M227.691,511.031h147.94c2.049,0,3.709,1.66,3.709,3.707v2.227c0,2.049-1.66,3.709-3.709,3.709
	h-147.94c-2.048,0-3.709-1.66-3.709-3.709v-2.227C223.982,512.691,225.643,511.031,227.691,511.031z"/>
<path fill="#B3B3B3" fill-opacity="0.1415" d="M266.329,179.743l-98.946,293.569h367.315c7.123,0,12.858-5.734,12.858-12.857
	V192.603c0-7.123-5.735-12.857-12.858-12.857H266.337L266.329,179.743z"/>
</svg>
