<?xml version="1.0" encoding="utf-8"?>
<!-- Generator: Adobe Illustrator 16.0.0, SVG Export Plug-In . SVG Version: 6.00 Build 0)  -->
<!DOCTYPE svg PUBLIC "-//W3C//DTD SVG 1.1//EN" "http://www.w3.org/Graphics/SVG/1.1/DTD/svg11.dtd">
<svg version="1.1" id="Layer_1" xmlns="http://www.w3.org/2000/svg" xmlns:xlink="http://www.w3.org/1999/xlink" x="0px" y="0px"
	 width="1024px" height="327px" viewBox="0 218.5 1024 327" enable-background="new 0 218.5 1024 327" xml:space="preserve">
<g>
	<path fill="#00B0EB" d="M60.832,508.11c26.57,20.627,60.133,32.863,96.142,32.863c39.506,0,75.865-14.684,103.484-38.807
		c0.35-0.35,0-0.35,0-0.35c-12.236,8.391-47.546,26.221-103.134,26.221C108.728,528.038,78.312,517.55,60.832,508.11
		C60.482,507.761,60.482,507.761,60.832,508.11 M167.812,516.151c38.807,0,81.109-10.488,106.63-31.465
		c6.992-5.594,13.635-13.285,19.578-23.423c3.496-5.943,6.642-12.936,9.439-19.578c0-0.35,0-0.35-0.35,0
		c-23.773,34.61-91.946,56.286-162.567,56.286c-49.994,0-103.483-16.082-124.46-46.497c-0.35-0.35-0.35,0-0.35,0
		C34.961,493.427,94.394,516.151,167.812,516.151 M125.509,446.93C45.1,446.93,7.342,409.521,0.35,384c0-0.35-0.35-0.35-0.35,0
		c0,8.74,0.699,19.578,2.447,26.92c0.699,3.496,3.496,9.09,8.041,13.635c19.578,20.277,67.824,48.596,152.079,48.596
		c114.322,0,140.542-38.107,146.136-50.693c3.846-9.09,5.943-25.172,5.943-38.807c0-3.146,0-5.943-0.35-8.391
		c0-0.35-0.35-0.35-0.35,0C307.654,406.025,210.114,446.93,125.509,446.93 M15.033,316.525c-4.545,9.09-9.789,24.473-11.188,32.514
		c-0.699,3.496-0.35,4.895,0.699,7.691c9.789,20.627,58.384,53.141,172.007,53.141c69.222,0,123.062-17.131,131.802-48.246
		c1.748-5.594,1.748-11.887-0.35-19.928c-2.447-9.09-6.643-19.578-10.139-27.27c0-0.35-0.35-0.35-0.35,0
		c1.398,41.254-112.224,67.475-169.56,67.475c-62.23,0-113.972-24.822-113.972-55.938C13.984,322.818,14.684,320.021,15.033,316.525
		C15.383,316.525,15.383,316.525,15.033,316.525 M260.807,266.532c0.699,1.049,1.049,2.098,1.049,3.496
		c0,17.48-53.49,48.246-138.444,48.246c-62.58,0-74.117-23.074-74.117-37.757c0-5.244,2.098-10.488,6.293-16.082
		c0.35-0.35,0-0.35-0.35-0.35c-8.041,6.992-15.382,14.684-22.025,23.074c-3.146,3.846-4.895,7.342-4.895,9.439
		c0,30.765,76.564,52.791,148.233,52.791c76.214,0,110.126-24.822,110.126-46.847c0-7.691-3.146-12.236-10.838-21.326
		C270.946,275.622,266.051,271.077,260.807,266.532C260.807,266.182,260.458,266.532,260.807,266.532 M237.383,249.052
		c-23.423-13.984-50.693-22.025-80.41-22.025s-57.685,8.391-81.458,22.725c-6.992,4.195-11.188,7.691-11.188,12.236
		c0,13.285,30.766,27.619,85.654,27.619c54.189,0,96.492-15.732,96.492-30.765C246.823,255.345,243.676,252.897,237.383,249.052"/>
	<g>
		<path d="M433.164,454.271c-28.668,0-51.043-19.229-51.043-48.945v-91.248h27.27v90.549c0,16.082,9.439,25.521,24.123,25.521
			c14.683,0,24.122-9.439,24.122-25.521v-90.549h26.92v91.248C484.206,435.043,461.481,454.271,433.164,454.271z"/>
		<path d="M503.085,409.172v-23.773h60.133v23.773H503.085z"/>
		<path d="M624.049,453.223h-19.928l-37.407-101.736h26.919l20.627,62.93l20.627-62.93h26.92L624.049,453.223z"/>
		<path d="M689.076,410.221c0,12.936,8.041,22.725,22.375,22.725c11.188,0,16.781-3.146,23.074-9.439l15.383,15.033
			c-10.488,10.488-20.277,16.082-38.807,16.082c-24.123,0-47.197-10.838-47.197-52.092c0-33.213,17.83-52.092,44.4-52.092
			c28.318,0,44.4,20.627,44.4,48.596v11.188H689.076z M725.436,381.902c-2.797-5.943-8.391-10.488-17.131-10.488
			s-14.334,4.545-17.131,10.488c-1.398,3.846-2.098,6.293-2.447,10.838h38.807C727.533,388.195,726.834,385.398,725.436,381.902z"/>
		<path d="M822.626,379.105c-3.846-3.846-7.342-5.943-13.635-5.943c-7.691,0-16.432,5.943-16.432,18.879v61.182h-25.521V351.137
			h24.821v9.789c4.895-5.943,14.684-10.838,25.521-10.838c9.789,0,17.131,2.447,24.123,9.439L822.626,379.105z"/>
		<path d="M882.759,454.271c-16.082,0-30.416-1.748-43.352-14.684l16.432-16.432c8.391,8.391,19.229,9.439,27.27,9.439
			c8.74,0,17.83-2.797,17.83-10.488c0-5.244-2.797-8.74-10.838-9.439l-16.082-1.398c-18.529-1.748-29.717-9.789-29.717-28.668
			c0-20.977,18.529-32.514,39.156-32.514c15.732,0,29.018,2.797,38.806,11.887l-15.731,15.732
			c-5.943-5.244-14.684-6.992-23.773-6.992c-10.139,0-14.334,4.545-14.334,9.789c0,3.846,1.398,8.041,10.488,8.74l16.082,1.398
			c20.276,2.098,30.415,12.586,30.415,29.717C926.109,443.434,906.882,454.271,882.759,454.271z"/>
		<path d="M960.371,410.221c0,12.936,8.041,22.725,22.375,22.725c11.188,0,16.781-3.146,23.074-9.439l15.383,15.033
			c-10.488,10.488-20.277,16.082-38.807,16.082c-24.123,0-47.197-10.838-47.197-52.092c0-33.213,17.83-52.092,44.4-52.092
			c28.318,0,44.4,20.627,44.4,48.596v11.188H960.371z M996.73,381.902c-2.797-5.943-8.391-10.488-17.131-10.488
			s-14.334,4.545-17.131,10.488c-1.398,3.846-2.098,6.293-2.447,10.838h38.807C998.828,388.195,998.129,385.398,996.73,381.902z"/>
	</g>
</g>
</svg>
