<?xml version="1.0" encoding="utf-8"?>
<!-- Generator: Adobe Illustrator 16.0.0, SVG Export Plug-In . SVG Version: 6.00 Build 0)  -->
<!DOCTYPE svg PUBLIC "-//W3C//DTD SVG 1.1//EN" "http://www.w3.org/Graphics/SVG/1.1/DTD/svg11.dtd">
<svg version="1.1"
	 id="svg6797" xmlns:dc="http://purl.org/dc/elements/1.1/" xmlns:cc="http://creativecommons.org/ns#" xmlns:rdf="http://www.w3.org/1999/02/22-rdf-syntax-ns#" xmlns:svg="http://www.w3.org/2000/svg" xmlns:sodipodi="http://sodipodi.sourceforge.net/DTD/sodipodi-0.dtd" xmlns:inkscape="http://www.inkscape.org/namespaces/inkscape" sodipodi:docname="Xfinity_Slogan.svg" inkscape:version="0.91 r13725"
	 xmlns="http://www.w3.org/2000/svg" xmlns:xlink="http://www.w3.org/1999/xlink" x="0px" y="0px" width="1000px"
	 height="326.545px" viewBox="0 0 1000 326.545" enable-background="new 0 0 1000 326.545" xml:space="preserve">
<sodipodi:namedview  inkscape:cy="175.41234" inkscape:cx="616.52167" inkscape:zoom="1.24" showgrid="false" guidetolerance="10" gridtolerance="10" objecttolerance="10" bordercolor="#666666" pagecolor="#ffffff" borderopacity="1" id="namedview29" inkscape:current-layer="g9" inkscape:window-maximized="1" inkscape:window-y="1" inkscape:window-x="0" inkscape:window-height="931" inkscape:window-width="1680" inkscape:pageshadow="2" inkscape:pageopacity="0">
	</sodipodi:namedview>
<g id="g3">
	<g id="g9">
		<g>
			<defs>
				<path id="SVGID_1_" d="M113.397,163.029l63.933-90.752h-46.881L90.912,130.14L51.41,72.277H4.48l63.882,90.752L0,260.282h46.912
					l44-64.398l91.416,130.662h45.003L113.397,163.029z M999.999,72.277h-44.131l-65.596,119.788L845.396,72.277h-42.396
					l63.021,163.917l-48.758,90.35h43.179L999.999,72.277z M217.446,72.277h-19.298l-22.355,31.963h41.653v156.04h40.896V104.24
					h41.72V72.277h-41.72V54.078c0-13.752,5.742-19.348,19.623-19.348c7.976,0,16.242,1.568,22.097,3.156V4.966
					C291.684,1.957,280.053,0,267.435,0c-31.318,0-49.985,20.494-49.985,54.676L217.446,72.277z M709.706,104.242v105.083
					c0,34.296,18.637,54.615,49.891,54.615c10.371,0,20.679-1.246,28.472-3.658l4.934-32.627c-2.344,0.582-10.9,2.637-18.473,2.637
					c-17.021,0-24.021-6.826-24.021-23.764V104.242h47.01l-12.215-31.965h-34.795V4.384l-40.801,20.754v47.139H679.94v31.965
					H709.706z M499.521,68.523c-19.233,0-37.579,8.074-47.092,20.723V72.277h-40.895v188.005h40.896V150.556
					c0-30.479,13.168-47.318,37.145-47.318c26.025,0,37.141,15.24,37.141,50.875v106.168h40.799V152.691
					C567.513,97.595,544.075,68.523,499.521,68.523L499.521,68.523z M367.844,249.719V72.277h-40.896v188.005h40.896V249.719
					L367.844,249.719z M650.403,249.719V72.277h-41.074v188.005h41.074V249.719 M965.446,248.327c2.911,0,4.61-1.422,4.61-3.639
					v-0.111c0-2.363-1.698-3.643-4.61-3.643h-5.824v7.393H965.446z M955.175,236.907h10.449c3.09,0,5.516,0.938,7.137,2.539
					c1.211,1.166,1.892,2.832,1.892,4.871v0.129c0,3.77-2.217,6.131-5.451,7.051l6.309,8.836h-5.322l-5.678-8.074h-4.887v8.074
					h-4.445v-23.426H955.175L955.175,236.907z M984.245,249.264v-0.143c0-11.068-8.607-20.027-19.994-20.027
					c-11.438,0-20.078,9.09-20.078,20.17v0.117c0,11.094,8.574,20.039,19.947,20.039
					C975.589,269.42,984.245,260.333,984.245,249.264z M941.811,249.381v-0.117c0-12.162,9.901-22.389,22.44-22.389
					c12.563,0,22.338,10.098,22.338,22.246v0.143c0,12.168-9.897,22.391-22.469,22.391
					C951.581,271.655,941.811,261.565,941.811,249.381"/>
			</defs>
			<clipPath id="SVGID_2_">
				<use xlink:href="#SVGID_1_"  overflow="visible"/>
			</clipPath>
			
				<linearGradient id="path250_2_" gradientUnits="userSpaceOnUse" x1="28.6201" y1="431.4243" x2="31.8555" y2="431.4243" gradientTransform="matrix(209.0833 145.0475 145.0475 -209.0833 -68414.9922 85969.7422)">
				<stop  offset="0" style="stop-color:#870E12"/>
				<stop  offset="0.1" style="stop-color:#BA151B"/>
				<stop  offset="0.25" style="stop-color:#ED1C24"/>
				<stop  offset="0.75" style="stop-color:#BA151B"/>
				<stop  offset="1" style="stop-color:#730B0E"/>
			</linearGradient>
			<path id="path250_1_" clip-path="url(#SVGID_2_)" fill="url(#path250_2_)" d="M0,0v326.545h999.998V232.86
				c-3.426,1.574-6.12,2.721-9.516,4.162c0.427,0.959,0.701,1.953,0.742,2.805c0.007,0.144,0.004,0.287-0.004,0.43
				c0.287,1.044,0.461,2.113,0.465,3.18c0.002,0.607-0.809,0.732-1.533,0.881c-0.06,0.093-0.125,0.197-0.195,0.307
				c0.223,0.023,0.444,0.046,0.666,0.076c0.965,0.967,2.399,1.627,2.896,2.9c0.441,1.129,0.194,2.537-0.35,3.621
				c-1.242,2.472-2.491,2.884-4.309,3.436c0.43,1.158,0.826,2.336,1.318,3.459c-0.166,0.096-0.34,0.18-0.51,0.27
				c-0.015,0.067-0.108,0.102-0.217,0.129c-0.136,0.076-0.272,0.152-0.396,0.248c-0.304,0.231-0.528,0.553-0.801,0.822
				c-1.304,1.285-2.556,2.625-3.896,3.873c-0.033,0.03-0.05,0.042-0.082,0.072c-0.001,0.176,0.001,0.352,0.006,0.527
				c0.559-0.07,1.539-1.309,1.617-0.75c0.094,0.675-1.064,0.797-1.709,1.107c-1.898,1.48-0.655,0.563-3.719,2.172
				c-0.44,0.304-0.727,0.508-1.4,0.98c-1.318,1.143-2.781,2.088-4.186,3.113c-0.532,0.516-1.007,0.965-1.23,1.143
				c-0.252,0.198-0.521,0.372-0.789,0.549c-0.105,0.244-0.706,0.602-0.52,0.479c0.164-0.109,0.292-0.26,0.42-0.412
				c-0.041,0.025-0.078,0.057-0.119,0.084c-0.186,0.201-0.517,0.434-0.816,0.607c-0.097,0.193-0.19,0.389-0.297,0.576
				c-0.698-0.65-1.441-1.262-2.184-1.873c-0.423,0.172-0.848,0.34-1.27,0.518c-0.824,0.256-1.652,0.501-2.475,0.766
				c-0.59,0.644-1.16,1.026-1.6,0.729c-0.789-0.537-1.426-1.026-1.996-1.496c-0.856,0.015-1.656-0.127-2.508-0.348
				c-0.012,0.001,0.006,0-0.008,0.002c-1.352-0.073-2.873,0.363-4.205,0.076c-2.84-0.612-5.26-1.912-7.74-3.32
				c0.103,0.094,0.114,0.113-0.127-0.07c0.043,0.023,0.084,0.046,0.127,0.07c-0.126-0.116-0.48-0.423-0.898-0.793
				c-1.05,0.103-2.115,0.035-3.17-0.258c-1.12-0.139-2.335,0.053-3.361-0.416c-2.305-1.055-2.433-2.097-2.961-3.92
				c-0.922-3.184-0.526-0.742-0.791-4.883c0.053-0.131,0.096-0.266,0.145-0.398c-0.646,0.123-1.225,0.197-1.408,0.063
				c-1.717-1.268-2.797-3.223-4.195-4.834c0.737-0.826,1.379-1.756,2.131-2.564c-1.075,0.02-2.149,0.008-3.23-0.088
				c-0.855-0.076-1.684-0.371-2.537-0.469c-0.949-0.109-1.908-0.104-2.863-0.154c-4.902-0.566-7.676,1.84-5.188-8.027
				c0.275-1.094,2.083-0.886,3.172-1.178c2.065-0.555,4.168-0.962,6.27-1.359c2.726-0.517,5.469-0.933,8.205-1.391
				c2.44-1.717,5.227-3.025,7.484-4.918c1.254-0.793,2.491-1.611,3.76-2.379c0.66-0.4,1.348-0.754,2.023-1.127
				c0.232-1.098,0.503-2.512,0.748-4.428c0.013-0.102,1.091-0.029,2.18,0.066c0.477,0.008,0.957,0.038,1.424-0.004
				c-0.16,0.006-0.323-0.006-0.318-0.096c0.015-0.271,0.495-0.229,0.719-0.381c0.317,0.203,0.543,0.325,0.826,0.498
				c0.584-0.511,1.177-1.009,1.801-1.459c0.202-1.244,0.557-2.452,1.182-3.536c0.544-0.943,1.404-1.663,2.111-2.49
				c0.122-0.143,0.211-0.332,0.377-0.42c0.967-0.514,1.991-0.911,2.986-1.367c1.082,0.228,2.158,0.483,3.246,0.682
				c0.059,0.011-0.061-0.135-0.021-0.18c0.506-0.007,1.047-0.208,1.518-0.021c3.583,1.424,5.581,2.971,8.635,5.037
				c0.299,0.337,0.66,0.642,1.043,0.936c0.691-0.283,0.07,0.1,0.896-0.375c0.196-0.215,0.39-0.434,0.598-0.633
				c0.753-0.437,1.485-0.912,2.258-1.313c0.108-0.056,0.25,0,0.363-0.047c0.48-0.198,0.934-0.457,1.402-0.682
				c0.583-0.279,1.324-1.318,1.75-0.832c0.004,0.004,0.006,0.006,0.01,0.01c1.291-0.551,1.695-0.066,2.236,2.566
				c1.404,1.632,2.162,2.62,2.32,3.278c1.051-0.107,2.109-0.174,3.176-0.193c2.461-0.12,4.088-0.35,5.326-0.061
				c0.3-0.252,0.57-0.42,0.707-0.154c0.09,0.174,0.174,0.362,0.264,0.541c0.034,0.02,0.066,0.045,0.1,0.068V0H0z M971.832,273.129
				c0.021-0.041,0.043-0.08,0.063-0.121c-0.155,0.098-0.313,0.193-0.465,0.295C971.207,273.452,971.476,273.335,971.832,273.129z
				 M971.895,273.008c0.253-0.16,0.502-0.325,0.754-0.486c0.028-0.031,0.084-0.067,0.104-0.096c0.03-0.045,0.073-0.138,0.107-0.193
				c-0.115-0.159-0.247-0.305-0.367-0.459C972.291,272.183,972.096,272.598,971.895,273.008z M972.768,272.438
				c0.033-0.022,0.066-0.045,0.1-0.066c0.008-0.02,0.01-0.037,0.012-0.055C972.843,272.358,972.803,272.395,972.768,272.438z
				 M966.264,223.178c-0.003-0.008-0.012-0.004-0.029,0.018c-0.141,0.17-0.262,0.355-0.363,0.549
				c0.032,0.033,0.064,0.067,0.096,0.104c0.059-0.055,0.114-0.115,0.17-0.176C966.175,223.483,966.275,223.213,966.264,223.178z
				 M944.355,259.61c-0.015,0.012-0.026,0.023-0.041,0.037c0.012,0.002,0.025,0.004,0.037,0.008
				C944.354,259.639,944.354,259.624,944.355,259.61z M943.832,260.09c-0.178,0.182-0.324,0.355-0.424,0.512
				c-0.146,0.227,0.319-0.115,0.652-0.332c-0.007-0.008-0.015-0.021-0.021-0.027C943.977,260.182,943.904,260.135,943.832,260.09z
				 M958.791,261.206c-1.221,0.887-2.676,1.503-3.945,2.254c0.039,0.021,0.079,0.037,0.117,0.061
				c0.171,0.104,0.147,0.446,0.342,0.494c0.801,0.194,1.717,0.018,2.582-0.027c0.105-0.352,0.236-0.695,0.377-1.033
				c0.154-0.371,0.326-0.707,0.49-1.057C958.762,261.665,958.773,261.434,958.791,261.206z M958.793,271.815
				c-0.102-0.028,0.189,0.094,0.293,0.113c0.086,0.016,0.129,0.01,0.205,0.018C959.124,271.901,958.966,271.862,958.793,271.815z"/>
		</g>
	</g>
</g>
</svg>
